# xmcd
#
# Track frame offsets:
#	150
#	16480
#	30517
#	47030
#	63557
#	80092
#	95665
#	116235
#	129907
#	143257
#	158452
#	180415
#	196735
#	211050
#	224012
#	239942
#	255925
#	268555
#	288685
#	302427
#
# Disc length: 4238
#
# Revision: 2
# Processed by: cddbd v1.5.1PL0 Copyright (c) Steve Scherf et al.
# Submitted via: OrangeCD 5.2
# Normalized: r1:DSETVAR1
#
DISCID=1a108c14
DTITLE=Various Artist - The Most Awesome Line Dancing Album
DYEAR=1997
DGENRE=Country
TTITLE0=Lacy J. Dalton - Black Coffee
TTITLE1=Larry Gatlin - Boogie And Beethoven
TTITLE2=Dan Seals - BOP
TTITLE3=Tanya Tucker - It's A Little Too Late
TTITLE4=Suzy Bogguss - Eat At Joes
TTITLE5=George Ducas - Tricky Moon
TTITLE6=Asleep At The Wheel - Lay Down Sally
TTITLE7=Pirates Of The Mississippi - Honky Tonk Blues
TTITLE8=Emilo - Even If I Tried
TTITLE9=Palimino Road - Why Baby Why
TTITLE10=Charlie Daniels - TennesseeTwo Step
TTITLE11=Billy Dean - Comwboy Band
TTITLE12=Highway 101 - No Chance To Dance
TTITLE13=Chris Ledoux - Cowboys Like A Little Rock And Roll
TTITLE14=Ricky Lynn Gregg - THree Nickles And A Dime
TTITLE15=Charlie Floyd - Mama Raised Me Right
TTITLE16=Lacy J. Dalton - Walk That Line
TTITLE17=Pearl River - Find Out What's Happening
TTITLE18=Tanya Tucker - Trail Of Tears
TTITLE19=Emilo - Hony Tonk Habit
EXTD=
EXTT0=
EXTT1=
EXTT2=
EXTT3=
EXTT4=
EXTT5=
EXTT6=
EXTT7=
EXTT8=
EXTT9=
EXTT10=
EXTT11=
EXTT12=
EXTT13=
EXTT14=
EXTT15=
EXTT16=
EXTT17=
EXTT18=
EXTT19=
PLAYORDER=
